<?xml version="1.0" encoding="UTF-8"?>
<svg xmlns="http://www.w3.org/2000/svg" width="1184" height="180" viewBox="0 0 1184 180">
  <rect width="100%" height="100%" fill="#050409"/>
  <g transform="translate(16,16)"><rect width="130" height="120" fill="#08070e" rx="14"/><rect width="130" height="120" rx="14" fill="none" stroke="rgba(201,168,124,0.15)" stroke-width="1"/><g transform="scale(1.083)"><polygon points="60,22 91,39.5 91,74.5 60,92 29,74.5 29,39.5" fill="rgba(201,168,124,0.08)" opacity="0"/><polygon points="60,14 97,35 97,79 60,100 23,79 23,35" fill="none" stroke="#c9a87c" stroke-width="2.5" stroke-dasharray="260" stroke-dashoffset="260" stroke-linejoin="round" opacity="0"/><circle cx="97" cy="35" r="3" fill="#c9a87c" opacity="0"/></g><text x="65" y="142" text-anchor="middle" font-family="monospace" font-size="8.5" fill="rgba(237,232,208,0.4)">f1 · blank</text></g><g transform="translate(162,16)"><rect width="130" height="120" fill="#08070e" rx="14"/><rect width="130" height="120" rx="14" fill="none" stroke="rgba(201,168,124,0.15)" stroke-width="1"/><g transform="scale(1.083)"><polygon points="60,22 91,39.5 91,74.5 60,92 29,74.5 29,39.5" fill="rgba(201,168,124,0.08)" opacity="0"/><polygon points="60,14 97,35 97,79 60,100 23,79 23,35" fill="none" stroke="#c9a87c" stroke-width="2.5" stroke-dasharray="260" stroke-dashoffset="195" stroke-linejoin="round" opacity="0.6"/><circle cx="97" cy="35" r="3" fill="#c9a87c" opacity="0"/></g><text x="65" y="142" text-anchor="middle" font-family="monospace" font-size="8.5" fill="rgba(237,232,208,0.4)">f2 · 25%</text></g><g transform="translate(308,16)"><rect width="130" height="120" fill="#08070e" rx="14"/><rect width="130" height="120" rx="14" fill="none" stroke="rgba(201,168,124,0.15)" stroke-width="1"/><g transform="scale(1.083)"><polygon points="60,22 91,39.5 91,74.5 60,92 29,74.5 29,39.5" fill="rgba(201,168,124,0.08)" opacity="0"/><polygon points="60,14 97,35 97,79 60,100 23,79 23,35" fill="none" stroke="#c9a87c" stroke-width="2.5" stroke-dasharray="260" stroke-dashoffset="130" stroke-linejoin="round" opacity="0.8"/><circle cx="97" cy="35" r="3" fill="#c9a87c" opacity="0"/></g><text x="65" y="142" text-anchor="middle" font-family="monospace" font-size="8.5" fill="rgba(237,232,208,0.4)">f3 · 50%</text></g><g transform="translate(454,16)"><rect width="130" height="120" fill="#08070e" rx="14"/><rect width="130" height="120" rx="14" fill="none" stroke="rgba(201,168,124,0.15)" stroke-width="1"/><g transform="scale(1.083)"><polygon points="60,22 91,39.5 91,74.5 60,92 29,74.5 29,39.5" fill="rgba(201,168,124,0.08)" opacity="0.3"/><polygon points="60,14 97,35 97,79 60,100 23,79 23,35" fill="none" stroke="#c9a87c" stroke-width="2.5" stroke-dasharray="260" stroke-dashoffset="65" stroke-linejoin="round" opacity="1"/><circle cx="97" cy="35" r="3" fill="#c9a87c" opacity="0"/></g><text x="65" y="142" text-anchor="middle" font-family="monospace" font-size="8.5" fill="rgba(237,232,208,0.4)">f4 · 75%</text></g><g transform="translate(600,16)"><rect width="130" height="120" fill="#08070e" rx="14"/><rect width="130" height="120" rx="14" fill="none" stroke="rgba(201,168,124,0.15)" stroke-width="1"/><g transform="scale(1.083)"><polygon points="60,22 91,39.5 91,74.5 60,92 29,74.5 29,39.5" fill="rgba(201,168,124,0.08)" opacity="0.7"/><polygon points="60,14 97,35 97,79 60,100 23,79 23,35" fill="none" stroke="#c9a87c" stroke-width="2.5" stroke-dasharray="260" stroke-dashoffset="0" stroke-linejoin="round" opacity="1"/><circle cx="97" cy="35" r="3" fill="#c9a87c" opacity="1"/></g><text x="65" y="142" text-anchor="middle" font-family="monospace" font-size="8.5" fill="rgba(237,232,208,0.4)">f5 · complete</text></g><g transform="translate(746,16)"><rect width="130" height="120" fill="#08070e" rx="14"/><rect width="130" height="120" rx="14" fill="none" stroke="rgba(201,168,124,0.15)" stroke-width="1"/><g transform="scale(1.083)"><polygon points="60,22 91,39.5 91,74.5 60,92 29,74.5 29,39.5" fill="rgba(201,168,124,0.08)" opacity="1"/><polygon points="60,14 97,35 97,79 60,100 23,79 23,35" fill="none" stroke="#c9a87c" stroke-width="2.5" stroke-dasharray="260" stroke-dashoffset="0" stroke-linejoin="round" opacity="1"/><circle cx="97" cy="35" r="3" fill="#c9a87c" opacity="1"/><text x="60" y="65" text-anchor="middle" font-family="monospace" font-weight="700" font-size="20" fill="#c9a87c" opacity="0.7" letter-spacing="1">B&gt;</text><rect x="74" y="51" width="2" height="14" fill="#c9a87c" opacity="0.7"/></g><text x="65" y="142" text-anchor="middle" font-family="monospace" font-size="8.5" fill="rgba(237,232,208,0.4)">f6 · text in</text></g><g transform="translate(892,16)"><rect width="130" height="120" fill="#08070e" rx="14"/><rect width="130" height="120" rx="14" fill="none" stroke="rgba(201,168,124,0.15)" stroke-width="1"/><g transform="scale(1.083)"><polygon points="60,22 91,39.5 91,74.5 60,92 29,74.5 29,39.5" fill="rgba(201,168,124,0.08)" opacity="1"/><polygon points="60,14 97,35 97,79 60,100 23,79 23,35" fill="none" stroke="#c9a87c" stroke-width="2.5" stroke-dasharray="260" stroke-dashoffset="0" stroke-linejoin="round" opacity="1"/><circle cx="97" cy="35" r="3" fill="#c9a87c" opacity="1"/><text x="60" y="65" text-anchor="middle" font-family="monospace" font-weight="700" font-size="20" fill="#c9a87c" opacity="1" letter-spacing="1">B&gt;</text><rect x="74" y="51" width="2" height="14" fill="#c9a87c" opacity="1"/></g><text x="65" y="142" text-anchor="middle" font-family="monospace" font-size="8.5" fill="rgba(237,232,208,0.4)">f7 · hold</text></g><g transform="translate(1038,16)"><rect width="130" height="120" fill="#08070e" rx="14"/><rect width="130" height="120" rx="14" fill="none" stroke="rgba(201,168,124,0.15)" stroke-width="1"/><g transform="scale(1.083)"><polygon points="60,22 91,39.5 91,74.5 60,92 29,74.5 29,39.5" fill="rgba(201,168,124,0.08)" opacity="0.2"/><polygon points="60,14 97,35 97,79 60,100 23,79 23,35" fill="none" stroke="#c9a87c" stroke-width="2.5" stroke-dasharray="260" stroke-dashoffset="0" stroke-linejoin="round" opacity="0.3"/><circle cx="97" cy="35" r="3" fill="#c9a87c" opacity="0"/><text x="60" y="65" text-anchor="middle" font-family="monospace" font-weight="700" font-size="20" fill="#c9a87c" opacity="0.2" letter-spacing="1">B&gt;</text><rect x="74" y="51" width="2" height="14" fill="#c9a87c" opacity="0.2"/></g><text x="65" y="142" text-anchor="middle" font-family="monospace" font-size="8.5" fill="rgba(237,232,208,0.4)">f8 · fade out</text></g>
</svg>